<?xml version="1.0" encoding="UTF-8" standalone="no"?>
<!DOCTYPE svg PUBLIC "-//W3C//DTD SVG 1.1//EN" "http://www.w3.org/Graphics/SVG/1.1/DTD/svg11.dtd">
<svg width="100%" height="100%" viewBox="0 0 1210 810" version="1.1" xmlns="http://www.w3.org/2000/svg" xmlns:xlink="http://www.w3.org/1999/xlink" xml:space="preserve" xmlns:serif="http://www.serif.com/" style="fill-rule:evenodd;clip-rule:evenodd;stroke-linejoin:round;stroke-miterlimit:2;">
    <g transform="matrix(1,0,0,1,-1230,-165)">
        <g transform="matrix(1,0,0,1,1180,0)">
            <g transform="matrix(1.648167,0,0,1.648167,50,164.999506)">
                <g transform="matrix(1,0,0,1,365.77,241.7003)">
                    <path d="M0,-232.47L0,-173.49L-36.13,-141.35L-36.13,-149.47L-55.08,-149.47L-55.08,-124.49L-88.19,-95.04L-58.57,-95.04L-58.57,-18.06C-83,-11.23 -103.19,-3.93 -113.49,0L-113.49,-232.47L0,-232.47Z" style="fill:white;fill-rule:nonzero;"/>
                </g>
                <g transform="matrix(1,0,0,1,543.3,264.4203)">
                    <path d="M0,-65.11C0,-65.11 -30.63,-64.41 -53.83,-62.14L-53.83,-8.87L-167.32,-8.87L-167.32,-42.24L-177.53,-41.35L-177.53,0.36L-291.02,0.36L-291.02,-16.28C-282.17,-19.76 -265.75,-25.92 -245.51,-32.14L-245.5,-32.14C-237.33,-34.65 -228.53,-37.17 -219.36,-39.53C-204.52,-43.34 -190.66,-46.42 -177.53,-49.01C-174.08,-49.69 -170.67,-50.34 -167.32,-50.95C-145.91,-54.88 -126.38,-57.6 -107.53,-60.25C-90.24,-62.69 -77.49,-63.87 -68.32,-64.47C-68.31,-64.48 -68.29,-64.48 -68.28,-64.48L-68.24,-64.48C-61.77,-64.91 -57.08,-65.05 -53.83,-65.15C-53.25,-65.17 -52.72,-65.19 -52.23,-65.21C-45.08,-65.47 0,-65.11 0,-65.11" style="fill:white;fill-rule:nonzero;"/>
                </g>
                <g transform="matrix(1,0,0,1,489.47,208.6703)">
                    <path d="M0,-208.67L0,-13.5C-7.96,-13.32 -24.19,-12.96 -53.5,-9.11C-72.41,-6.63 -92,-4.1 -113.49,-0.36C-114.18,-0.24 -114.88,-0.12 -115.58,0C-115.36,-6.39 -114.58,-28.22 -113.49,-42.53C-113.2,-46.27 -112.9,-49.49 -112.57,-51.8C-110.78,-64.57 -104.91,-89.84 -101.85,-99.8C-98.85,-109.52 -91.25,-122.4 -90.88,-123.02C-91.11,-122.33 -98.56,-100.2 -100.32,-93.16C-102.1,-86.01 -105.42,-70.18 -106.7,-53.59C-107.98,-36.99 -108.49,-7.12 -108.49,-7.12C-108.49,-7.12 -70.7,-14.53 -58.19,-22.95C-45.68,-31.38 -33.93,-44.4 -33.93,-66.1C-33.93,-87.8 -44.66,-111.29 -49,-120.48C-53.34,-129.67 -69.93,-165.42 -71.47,-171.55C-73,-177.67 -72.74,-181.76 -72.74,-181.76L-113.49,-149.21L-113.49,-208.67L0,-208.67Z" style="fill:white;fill-rule:nonzero;"/>
                </g>
                <g transform="matrix(-1,0,0,1,715.56,-176.545)">
                    <rect x="348.17" y="324.905" width="19.22" height="18.19" style="fill:white;"/>
                </g>
                <g transform="matrix(-1,0,0,1,715.56,-130.845)">
                    <rect x="348.17" y="302.055" width="19.22" height="18.19" style="fill:white;"/>
                </g>
                <g transform="matrix(0.999556,0.029794,0.029794,-0.999556,16.54883,468.262458)">
                    <path d="M0.021,-1.425L92.859,-1.425C94.42,-1.425 95.672,-0.135 95.626,1.425C95.579,2.985 94.253,4.198 92.695,4.105L0.021,-1.425Z" style="fill:white;fill-rule:nonzero;"/>
                </g>
                <g transform="matrix(-0.999556,0.029794,0.029794,0.999556,623.18693,471.112142)">
                    <path d="M-95.626,1.425L-2.788,1.425C-1.227,1.425 0.025,0.135 -0.021,-1.425C-0.068,-2.985 -1.394,-4.198 -2.952,-4.105L-95.626,1.425Z" style="fill:white;fill-rule:nonzero;"/>
                </g>
                <g transform="matrix(1,0,0,1,151.7483,449.8314)">
                    <path d="M0,40.064L0,4.543L-11.33,4.543L-11.33,0L16.091,0L16.091,4.543L4.816,4.543L4.816,40.064L0,40.064Z" style="fill:white;fill-rule:nonzero;"/>
                </g>
                <g transform="matrix(1,0,0,1,189.6824,449.8314)">
                    <path d="M0,40.064L0,0L21.127,0L21.127,4.351L4.762,4.351L4.762,15.844L21.127,15.844L21.127,20.278L4.762,20.278L4.762,35.63L21.127,35.63L21.127,40.064L0,40.064Z" style="fill:white;fill-rule:nonzero;"/>
                </g>
                <g transform="matrix(1,0,0,1,254.0803,448.244)">
                    <path d="M0,43.211L-12.452,14.422L-17.487,41.651L-22.14,41.651L-14.012,0L0,33.141L14.012,0L22.139,41.651L17.487,41.651L12.397,14.422L0,43.211Z" style="fill:white;fill-rule:nonzero;"/>
                </g>
                <g transform="matrix(1,0,0,1,303.5632,468.604)">
                    <path d="M0,2.518L0,17.131L3.694,17.131C6.23,17.131 8.06,17.032 9.182,16.831C10.304,16.63 11.202,16.284 11.877,15.79C12.698,15.207 13.346,14.395 13.82,13.355C14.294,12.315 14.532,11.165 14.532,9.907C14.532,8.448 14.249,7.18 13.683,6.103C13.118,5.027 12.296,4.187 11.22,3.585C10.582,3.203 9.843,2.928 9.003,2.764C8.164,2.6 6.859,2.518 5.09,2.518L0,2.518ZM0,-14.641L0,-1.231L3.694,-1.231C7.088,-1.231 9.478,-1.724 10.865,-2.709C12.251,-3.694 12.944,-5.354 12.944,-7.69C12.944,-10.262 12.301,-12.064 11.015,-13.094C9.729,-14.125 7.289,-14.641 3.694,-14.641L0,-14.641ZM-4.652,21.291L-4.652,-18.773L3.694,-18.773C6.632,-18.773 8.798,-18.623 10.194,-18.322C11.59,-18.02 12.789,-17.504 13.793,-16.775C15.069,-15.827 16.06,-14.609 16.762,-13.122C17.464,-11.634 17.815,-10.006 17.815,-8.237C17.815,-6.121 17.309,-4.351 16.297,-2.928C15.284,-1.504 13.811,-0.51 11.877,0.055C14.249,0.42 16.123,1.483 17.501,3.244C18.878,5.004 19.567,7.225 19.567,9.907C19.567,11.513 19.275,13.045 18.691,14.504C18.107,15.964 17.295,17.214 16.256,18.253C15.125,19.367 13.729,20.152 12.069,20.607C10.408,21.064 7.617,21.291 3.694,21.291L-4.652,21.291Z" style="fill:white;fill-rule:nonzero;"/>
                </g>
                <g transform="matrix(1,0,0,1,359.614,479.3592)">
                    <path d="M0,-20.579L-6.376,-5.829L6.376,-5.829L0,-20.579ZM0,-31.115L18.226,10.536L13.054,10.536L7.854,-1.751L-7.8,-1.751L-12.999,10.536L-18.171,10.536L0,-31.115Z" style="fill:white;fill-rule:nonzero;"/>
                </g>
                <g transform="matrix(1,0,0,1,398.5061,449.8314)">
                    <path d="M0,40.064L0,0L4.762,0L4.762,35.521L19.896,35.521L19.896,40.064L0,40.064Z" style="fill:white;fill-rule:nonzero;"/>
                </g>
                <g transform="matrix(1,0,0,1,453.2708,479.3592)">
                    <path d="M0,-20.579L-6.376,-5.829L6.377,-5.829L0,-20.579ZM0,-31.115L18.227,10.536L13.054,10.536L7.854,-1.751L-7.8,-1.751L-12.999,10.536L-18.171,10.536L0,-31.115Z" style="fill:white;fill-rule:nonzero;"/>
                </g>
                <g transform="matrix(1,0,0,1,492.1633,449.8044)">
                    <path d="M0,40.091L0,-1.56L29.31,30.458L29.31,0.027L33.853,0.027L33.853,41.651L4.543,9.987L4.543,40.091L0,40.091Z" style="fill:white;fill-rule:nonzero;"/>
                </g>
                <g transform="matrix(1,0,0,1,574.1575,470.685)">
                    <path d="M0,-1.479L16.529,-1.479L16.529,-0.137C16.529,6.175 14.741,11.156 11.166,14.804C7.59,18.454 2.709,20.278 -3.476,20.278C-5.354,20.278 -7.147,20.077 -8.853,19.675C-10.56,19.274 -12.133,18.691 -13.573,17.924C-16.857,16.118 -19.394,13.624 -21.182,10.44C-22.97,7.256 -23.863,3.639 -23.863,-0.412C-23.863,-3.75 -23.33,-6.764 -22.263,-9.456C-21.195,-12.147 -19.585,-14.514 -17.433,-16.557C-15.626,-18.272 -13.528,-19.568 -11.138,-20.444C-8.748,-21.319 -6.103,-21.757 -3.202,-21.757C0.647,-21.757 3.986,-21.059 6.814,-19.664C9.642,-18.268 11.986,-16.165 13.848,-13.356L9.852,-10.154C8.41,-12.58 6.613,-14.4 4.461,-15.614C2.308,-16.827 -0.191,-17.433 -3.038,-17.433C-7.689,-17.433 -11.467,-15.864 -14.367,-12.726C-17.269,-9.588 -18.719,-5.483 -18.719,-0.412C-18.719,4.369 -17.245,8.292 -14.299,11.356C-11.353,14.421 -7.599,15.954 -3.038,15.954C0.976,15.954 4.319,14.736 6.992,12.3C9.665,9.865 11.147,6.695 11.439,2.791L0,2.791L0,-1.479Z" style="fill:white;fill-rule:nonzero;"/>
                </g>
                <g transform="matrix(1,0,0,1,698.1689,347.9904)">
                    <path d="M0,46.59L7.95,-22.95L15.9,46.59L0,46.59ZM21.24,-39L-5.34,-39L-19.59,85.59L-4.46,85.59L-1.38,58.67L17.28,58.67L20.36,85.59L35.49,85.59L21.24,-39Z" style="fill:white;fill-rule:nonzero;"/>
                </g>
                <g transform="matrix(1,0,0,1,677.96,433.5803)">
                    <path d="M0,-124.59L0,-110.39L-15,-110.39L-15,0L-30.13,0L-30.13,-110.39L-45.13,-110.39L-45.13,-124.59L0,-124.59Z" style="fill:white;fill-rule:nonzero;"/>
                </g>
                <g transform="matrix(1,0,0,1,596.5519,347.9904)">
                    <path d="M0,46.59L7.95,-22.95L15.9,46.59L0,46.59ZM21.24,-39L-5.34,-39L-19.59,85.59L-4.46,85.59L-1.38,58.67L17.28,58.67L20.36,85.59L35.49,85.59L21.24,-39Z" style="fill:white;fill-rule:nonzero;"/>
                </g>
                <g transform="matrix(1,0,0,1,566.37,433.5803)">
                    <path d="M0,-124.59L0,0L-15.13,0L-15.13,-114.08L-29.11,0L-44.45,0L-58.43,-114.08L-58.43,0L-73.56,0L-73.56,-124.59L-50.72,-124.59L-36.78,-25.23L-22.84,-124.59L0,-124.59Z" style="fill:white;fill-rule:nonzero;"/>
                </g>
                <g transform="matrix(1,0,0,1,450.1945,421.3303)">
                    <path d="M0,-100.09L10.04,-100.09C13.25,-100.09 15.85,-97.49 15.85,-94.28L15.85,-45.79C15.85,-42.58 13.25,-39.98 10.04,-39.98L0,-39.98L0,-100.09ZM23.43,-31.87C28.03,-35.45 30.98,-41.04 30.98,-47.32L30.98,-92.75C30.98,-103.57 22.21,-112.34 11.39,-112.34L-15.13,-112.34L-15.13,12.25L0,12.25L0,-27.73L9.33,-27.73L19.16,12.25L34.29,12.25L23.43,-31.87Z" style="fill:white;fill-rule:nonzero;"/>
                </g>
                <g transform="matrix(1,0,0,1,402.62,419.9304)">
                    <path d="M0,-97.29L0,-55.67L19.22,-55.67L19.22,-44.05L0,-44.05L0,0L19.22,0L19.22,13.65L-15.13,13.65L-15.13,-110.94L19.22,-110.94L19.22,-97.29L0,-97.29Z" style="fill:white;fill-rule:nonzero;"/>
                </g>
                <g transform="matrix(1,0,0,1,344.15,352.9503)">
                    <path d="M0,36.67L0,-30.63L9.582,-30.63C12.718,-30.63 15.26,-28.088 15.26,-24.951L15.26,30.991C15.26,34.128 12.718,36.67 9.582,36.67L0,36.67ZM-15.12,-43.96L-15.12,80.63L0,80.63L0,50.01L12.434,50.01C22.351,50.01 30.39,41.971 30.39,32.054L30.39,-26.004C30.39,-35.921 22.351,-43.96 12.434,-43.96L-15.12,-43.96Z" style="fill:white;fill-rule:nonzero;"/>
                </g>
                <g transform="matrix(1,0,0,1,262.62,322.3303)">
                    <path d="M0,97.91L0,-0L9.695,-0C13.895,-0 17.3,3.405 17.3,7.605L17.3,90.305C17.3,94.505 13.895,97.91 9.695,97.91L0,97.91ZM-15.13,-13.34L-15.13,111.25L13.398,111.25C23.909,111.25 32.43,102.729 32.43,92.218L32.43,5.692C32.43,-4.819 23.909,-13.34 13.398,-13.34L-15.13,-13.34Z" style="fill:white;fill-rule:nonzero;"/>
                </g>
                <g transform="matrix(1,0,0,1,235.05,433.5803)">
                    <path d="M0,-124.59L0,0L-19.27,0L-38.47,-97.76L-38.47,0L-53.6,0L-53.6,-124.59L-34.59,-124.59L-13.4,-25.88L-13.4,-124.59L0,-124.59Z" style="fill:white;fill-rule:nonzero;"/>
                </g>
                <g transform="matrix(1,0,0,1,135.02,347.9904)">
                    <path d="M0,46.59L7.95,-22.95L15.9,46.59L0,46.59ZM21.24,-39L-5.34,-39L-19.59,85.59L-4.46,85.59L-1.38,58.67L17.28,58.67L20.36,85.59L35.49,85.59L21.24,-39Z" style="fill:white;fill-rule:nonzero;"/>
                </g>
                <g transform="matrix(1,0,0,1,74.62,421.3303)">
                    <path d="M0,-100.09L10.04,-100.09C13.25,-100.09 15.85,-97.49 15.85,-94.28L15.85,-45.79C15.85,-42.58 13.25,-39.98 10.04,-39.98L0,-39.98L0,-100.09ZM23.43,-31.87C28.03,-35.45 30.98,-41.04 30.98,-47.32L30.98,-92.75C30.98,-103.57 22.21,-112.34 11.39,-112.34L-15.13,-112.34L-15.13,12.25L0,12.25L0,-27.73L9.33,-27.73L19.16,12.25L34.29,12.25L23.43,-31.87Z" style="fill:white;fill-rule:nonzero;"/>
                </g>
                <g transform="matrix(1,0,0,1,47.3,393.8003)">
                    <path d="M0,-45.03L0,-61.16C0,-74.22 -10.59,-84.81 -23.65,-84.81C-30.18,-84.81 -36.09,-82.16 -40.37,-77.88C-44.65,-73.6 -47.3,-67.69 -47.3,-61.16L-47.3,16.13C-47.3,29.19 -36.71,39.78 -23.65,39.78C-17.12,39.78 -11.21,37.13 -6.93,32.85C-2.65,28.57 0,22.66 0,16.13L0,-28.13L-25.61,-28.13L-25.61,-17.6L-15.13,-17.6L-15.13,18.73C-15.13,23.44 -18.94,27.25 -23.65,27.25C-26,27.25 -28.14,26.3 -29.68,24.76C-31.22,23.22 -32.17,21.08 -32.17,18.73L-32.17,-63.76C-32.17,-68.47 -28.36,-72.28 -23.65,-72.28C-21.3,-72.28 -19.16,-71.33 -17.62,-69.79C-16.08,-68.24 -15.13,-66.12 -15.13,-63.76L-15.13,-45.03L0,-45.03Z" style="fill:white;fill-rule:nonzero;"/>
                </g>
            </g>
        </g>
    </g>
</svg>
